<svg version="1.1" style="font-family: Roboto; font-size: 12px;"
    xmlns="http://www.w3.org/2000/svg" width="524" height="280" viewBox="0 0 524 280" aria-hidden="false" aria-label="Interactive chart">
    <defs aria-hidden="true">
        <clipPath >
            <rect x="0" y="0" width="459" height="161" fill="none"></rect>
        </clipPath>
        <clipPath >
            <rect x="0" y="0" width="459" height="161" fill="none"></rect>
        </clipPath>
    </defs>
    <rect fill="#ffffff" x="0" y="0" width="524" height="280" rx="0" ry="0" aria-hidden="true"></rect>
    <rect fill="none" x="55" y="46" width="459" height="161" aria-hidden="true"></rect>
    <g data-z-index="0" aria-hidden="true"></g>
    <rect fill="none" data-z-index="1" x="55" y="46" width="459" height="161" aria-hidden="true"></rect>
    <!--grid-->
    <g data-z-index="1" aria-hidden="true">
        <path fill="none" stroke="#e6e6e6" stroke-width="1" stroke-dasharray="none" data-z-index="1" d="M 55 207.5 L 514 207.5" opacity="1"></path>
        <path fill="none" stroke="#e6e6e6" stroke-width="1" stroke-dasharray="none" data-z-index="1" d="M 55 167.5 L 514 167.5" opacity="1"></path>
        <path fill="none" stroke="#e6e6e6" stroke-width="1" stroke-dasharray="none" data-z-index="1" d="M 55 127.5 L 514 127.5" opacity="1"></path>
        <path fill="none" stroke="#e6e6e6" stroke-width="1" stroke-dasharray="none" data-z-index="1" d="M 55 86.5 L 514 86.5" opacity="1"></path>
        <path fill="none" stroke="#e6e6e6" stroke-width="1" stroke-dasharray="none" data-z-index="1" d="M 55 45.5 L 514 45.5" opacity="1"></path>
    </g>

    <!-- Data -->
    <g data-z-index="3" aria-hidden="false">
        <g data-z-index="0.1" opacity="1" transform="translate(55,46) scale(1 1)" clip-path="url(#highcharts-xo1lnql-1025-)" aria-hidden="true">
            <path fill="none" d="M 76.5 66.4125 C 76.5 66.4125 168.3 66.4125 229.5 66.4125" data-z-index="1" stroke="#6f58e9" stroke-width="2" stroke-linejoin="round" stroke-linecap="round"></path>
        </g>
        <g data-z-index="0.1" opacity="1" transform="translate(55,46) scale(1 1)" clip-path="none" style="cursor: pointer; outline: none;" aria-hidden="false" role="region" tabindex="-1" aria-label="micro moustache, line 1 of 5 with 3 data points.">
            <path fill="#6f58e9" d="M 76 70.4125 A 4 4 0 1 1 76.00399999933333 70.41249800000016 Z" opacity="1" tabindex="-1" role="img" aria-label="cold, 4.7. micro moustache." style="outline: none;"></path>
            <path fill="#6f58e9" d="M 229 70.4125 A 4 4 0 1 1 229.00399999933333 70.41249800000016 Z" opacity="1" tabindex="-1" role="img" aria-label="preparsed, 4.7. micro moustache." style="outline: none;"></path>
        </g>
        <g data-z-index="0.1" opacity="1" transform="translate(55,46) scale(1 1)" clip-path="url(#highcharts-xo1lnql-1025-)" aria-hidden="true">
            <path fill="none" d="M 76.5 15.898750000000007 C 76.5 15.898750000000007 168.3 91.3675 229.5 91.3675 C 290.7 91.3675 382.5 41.98075 382.5 41.98075" data-z-index="1" stroke="#94d13d" stroke-width="2" stroke-linejoin="round" stroke-linecap="round"></path>
            <path fill="none" d="M 76.5 15.898750000000007 C 76.5 15.898750000000007 168.3 91.3675 229.5 91.3675 C 290.7 91.3675 382.5 41.98075 382.5 41.98075" data-z-index="2" stroke-linecap="round" stroke-linejoin="round" stroke="rgba(192,192,192,0.0001)" stroke-width="22" style="cursor: pointer;"></path>
        </g>
        <g data-z-index="0.1" opacity="1" transform="translate(55,46) scale(1 1)" clip-path="none" style="cursor: pointer; outline: none;" aria-hidden="false" role="region" tabindex="-1" aria-label="kainjow mustache, line 2 of 5 with 3 data points.">
            <path fill="#94d13d" d="M 76 11.898750000000007 L 80 15.898750000000007 L 76 19.898750000000007 L 72 15.898750000000007 Z" opacity="1" tabindex="-1" role="img" aria-label="cold, 7.21. kainjow mustache." style="outline: none;"></path>
            <path fill="#94d13d" d="M 229 87.3675 L 233 91.3675 L 229 95.3675 L 225 91.3675 Z" opacity="1" tabindex="-1" role="img" aria-label="preparsed, 3.46. kainjow mustache." style="outline: none;"></path>
            <path fill="#94d13d" d="M 382 37.98075 L 386 41.98075 L 382 45.98075 L 378 41.98075 Z" opacity="1" tabindex="-1" role="img" aria-label="loop, 5.914. kainjow mustache." style="outline: none;"></path>
        </g>
        <g data-z-index="0.1" opacity="1" transform="translate(55,46) scale(1 1)" clip-path="url(#highcharts-xo1lnql-1025-)" aria-hidden="true">
            <path fill="none" d="M 76.5 55.34375 C 76.5 55.34375 168.3 108.31275 229.5 108.31275 C 290.7 108.31275 382.5 24.00912500000001 382.5 24.00912500000001" data-z-index="1" stroke="#d400a8" stroke-width="2" stroke-linejoin="round" stroke-linecap="round"></path>
            <path fill="none" d="M 76.5 55.34375 C 76.5 55.34375 168.3 108.31275 229.5 108.31275 C 290.7 108.31275 382.5 24.00912500000001 382.5 24.00912500000001" data-z-index="2" stroke-linecap="round" stroke-linejoin="round" stroke="rgba(192,192,192,0.0001)" stroke-width="22" style="cursor: pointer;"></path>
        </g>
        <g data-z-index="0.1" opacity="1" transform="translate(55,46) scale(1 1)" clip-path="none" style="cursor: pointer; outline: none;" aria-hidden="false" role="region" tabindex="-1" aria-label="inja, line 3 of 5 with 3 data points.">
            <path fill="#d400a8" d="M 72 51.34375 L 80 51.34375 L 80 59.34375 L 72 59.34375 Z" opacity="1" tabindex="-1" role="img" aria-label="cold, 5.25. inja." style="outline: none;"></path>
            <path fill="#d400a8" d="M 225 104.31275 L 233 104.31275 L 233 112.31275 L 225 112.31275 Z" opacity="1" tabindex="-1" role="img" aria-label="preparsed, 2.618. inja." style="outline: none;"></path>
            <path fill="#d400a8" d="M 378 20.00912500000001 L 386 20.00912500000001 L 386 28.00912500000001 L 378 28.00912500000001 Z" opacity="1" tabindex="-1" role="img" aria-label="loop, 6.807. inja." style="outline: none;"></path>
        </g>
        <g data-z-index="0.1" opacity="1" transform="translate(55,46) scale(1 1)" clip-path="url(#highcharts-xo1lnql-1025-)" aria-hidden="true">
            <path fill="none" d="M 76.5 86.5375 C 76.5 86.5375 168.3 136.64875 229.5 136.64875 C 290.7 136.64875 382.5 68.425 382.5 68.425" data-z-index="1" stroke="#47a6c1" stroke-width="2" stroke-linejoin="round" stroke-linecap="round"></path>
            <path fill="none" d="M 76.5 86.5375 C 76.5 86.5375 168.3 136.64875 229.5 136.64875 C 290.7 136.64875 382.5 68.425 382.5 68.425" data-z-index="2" stroke-linecap="round" stroke-linejoin="round" stroke="rgba(192,192,192,0.0001)" stroke-width="22" style="cursor: pointer;"></path>
        </g>
        <g data-z-index="0.1" opacity="1" transform="translate(55,46) scale(1 1)" clip-path="none" style="cursor: pointer; outline: none;" aria-hidden="false" role="region" tabindex="-1" aria-label="bustache, line 4 of 5 with 3 data points.">
            <path fill="#47a6c1" d="M 76 82.5375 L 80 90.5375 L 72 90.5375 Z" opacity="1" tabindex="-1" role="img" aria-label="cold, 3.7. bustache." style="outline: none;"></path>
            <path fill="#47a6c1" d="M 229 132.64875 L 233 140.64875 L 225 140.64875 Z" opacity="1" tabindex="-1" role="img" aria-label="preparsed, 1.21. bustache." style="outline: none;"></path>
            <path fill="#47a6c1" d="M 382 64.425 L 386 72.425 L 378 72.425 Z" opacity="1" tabindex="-1" role="img" aria-label="loop, 4.6. bustache." style="outline: none;"></path>
        </g>
        <g data-z-index="0.1" opacity="1" transform="translate(55,46) scale(1 1)" clip-path="url(#highcharts-xo1lnql-1025-)" aria-hidden="true">
            <path fill="none" d="M 76.5 120.75 C 76.5 120.75 168.3 147.91875 229.5 147.91875 C 290.7 147.91875 382.5 74.4625 382.5 74.4625" data-z-index="1" stroke="#c9bb16" stroke-width="2" stroke-linejoin="round" stroke-linecap="round"></path>
            <path fill="none" d="M 76.5 120.75 C 76.5 120.75 168.3 147.91875 229.5 147.91875 C 290.7 147.91875 382.5 74.4625 382.5 74.4625" data-z-index="2" stroke-linecap="round" stroke-linejoin="round" stroke="rgba(192,192,192,0.0001)" stroke-width="22" style="cursor: pointer;"></path>
        </g>
        <g data-z-index="0.1" opacity="1" transform="translate(55,46) scale(1 1)" clip-path="none" style="cursor: pointer; outline: none;" aria-hidden="false" role="region" tabindex="-1" aria-label="tinja, line 5 of 5 with 3 data points.">
            <path fill="#c9bb16" d="M 382 74.4625 A 0 0 0 1 1 382 74.4625 Z" data-z-index="-1" fill-opacity="0.25" visibility="hidden"></path>
            <path fill="#c9bb16" d="M 72 116.75 L 80 116.75 L 76 124.75 Z" opacity="1" tabindex="-1" role="img" aria-label="cold, 2. tinja." style="outline: none;"></path>
            <path fill="#c9bb16" d="M 225 143.91875 L 233 143.91875 L 229 151.91875 Z" opacity="1" tabindex="-1" role="img" aria-label="preparsed, 0.65. tinja." style="outline: none;"></path>
            <path fill="#c9bb16" d="M 378 70.4625 L 386 70.4625 L 382 78.4625 Z" opacity="1" tabindex="-1" role="img" aria-label="loop, 4.3. tinja." style="outline: none;" stroke-width="0.0025244915093498577"></path>
        </g>
    </g>
    
    <!-- Legend -->
    <g data-z-index="7" aria-hidden="true" transform="translate(21,239)">
        <rect fill="none" rx="0" ry="0" x="0" y="0" width="482" height="26"></rect>
        <g data-z-index="1">
            <g>
                <g data-z-index="1" transform="translate(8,3)">
                    <path fill="none" d="M 0 11 L 16 11" stroke="#6f58e9" stroke-width="2"></path>
                    <path fill="#6f58e9" d="M 8 15 A 4 4 0 1 1 8.003999999333336 14.999998000000167 Z" opacity="1"></path>
                    <text font-family='Roboto-Regular,Roboto' x="21" text-anchor="start" data-z-index="2" y="15" style="color: rgb(51, 51, 51); cursor: pointer; font-size: 12px; font-weight: bold; fill: rgb(51, 51, 51);">micro moustache</text>
                </g>
                <g data-z-index="1" transform="translate(142.470703125,3)">
                    <path fill="none" d="M 0 11 L 16 11" stroke="#94d13d" stroke-width="2"></path>
                    <path fill="#94d13d" d="M 8 7 L 12 11 L 8 15 L 4 11 Z" opacity="1"></path>
                    <text font-family='Roboto-Regular,Roboto' x="21" y="15" text-anchor="start" data-z-index="2" style="color: rgb(51, 51, 51); cursor: pointer; font-size: 12px; font-weight: bold; fill: rgb(51, 51, 51);">kainjow mustache</text>
                </g>
                <g data-z-index="1" transform="translate(280.46875,3)">
                    <path fill="none" d="M 0 11 L 16 11" stroke="#d400a8" stroke-width="2"></path>
                    <path fill="#d400a8" d="M 4 7 L 12 7 L 12 15 L 4 15 Z" opacity="1"></path>
                    <text font-family='Roboto-Regular,Roboto' x="21" y="15" text-anchor="start" data-z-index="2" style="color: rgb(51, 51, 51); cursor: pointer; font-size: 12px; font-weight: bold; fill: rgb(51, 51, 51);">inja</text>
                </g>
                <g data-z-index="1" transform="translate(340.3984375,3)">
                    <path fill="none" d="M 0 11 L 16 11" stroke="#47a6c1" stroke-width="2"></path>
                    <path fill="#47a6c1" d="M 8 7 L 12 15 L 4 15 Z" opacity="1"></path>
                    <text font-family='Roboto-Regular,Roboto' x="21" y="15" text-anchor="start" data-z-index="2" style="color: rgb(51, 51, 51); cursor: pointer; font-size: 12px; font-weight: bold; fill: rgb(51, 51, 51);">bustache</text>
                </g>
                <g data-z-index="1" transform="translate(430.771484375,3)">
                    <path fill="none" d="M 0 11 L 16 11" stroke="#c9bb16" stroke-width="2"></path>
                    <path fill="#c9bb16" d="M 4 7 L 12 7 L 8 15 Z" opacity="1"></path>
                    <text font-family='Roboto-Regular,Roboto' x="21" y="15" text-anchor="start" data-z-index="2" style="color: rgb(51, 51, 51); cursor: pointer; font-size: 12px; font-weight: bold; fill: rgb(51, 51, 51);">tinja</text>
                </g>
            </g>
        </g>
    </g>

    <g data-z-index="7" aria-hidden="true">
        <text font-family='Roboto-Regular,Roboto' x="131.5" text-anchor="middle" transform="translate(0,0)" style="color: rgb(102, 102, 102); cursor: default; font-size: 11px; fill: rgb(102, 102, 102);" y="226" opacity="1">cold</text>
        <text font-family='Roboto-Regular,Roboto' x="284.5" text-anchor="middle" transform="translate(0,0)" style="color: rgb(102, 102, 102); cursor: default; font-size: 11px; fill: rgb(102, 102, 102);" y="226" opacity="1">preparsed</text>
        <text font-family='Roboto-Regular,Roboto' x="437.5" text-anchor="middle" transform="translate(0,0)" style="color: rgb(102, 102, 102); cursor: default; font-size: 11px; fill: rgb(102, 102, 102);" y="226" opacity="1">loop</text>
    </g>
    <g data-z-index="7" aria-hidden="true">
        <text font-family='Roboto-Regular,Roboto' x="40" text-anchor="end" transform="translate(0,0)" style="color: rgb(102, 102, 102); cursor: default; font-size: 11px; fill: rgb(102, 102, 102);" y="212" opacity="1">0 ms</text>
        <text font-family='Roboto-Regular,Roboto' x="40" text-anchor="end" transform="translate(0,0)" style="color: rgb(102, 102, 102); cursor: default; font-size: 11px; fill: rgb(102, 102, 102);" y="172" opacity="1">4 ms</text>
        <text font-family='Roboto-Regular,Roboto' x="40" text-anchor="end" transform="translate(0,0)" style="color: rgb(102, 102, 102); cursor: default; font-size: 11px; fill: rgb(102, 102, 102);" y="131" opacity="1">16 ms</text>
        <text font-family='Roboto-Regular,Roboto' x="40" text-anchor="end" transform="translate(0,0)" style="color: rgb(102, 102, 102); cursor: default; font-size: 11px; fill: rgb(102, 102, 102);" y="91" opacity="1">64 ms</text>
        <text font-family='Roboto-Regular,Roboto' x="40" text-anchor="end" transform="translate(0,0)" style="color: rgb(102, 102, 102); cursor: default; font-size: 11px; fill: rgb(102, 102, 102);" y="51" opacity="1">256 ms</text>
    </g>
</svg>
